<svg width="18" height="20" viewBox="0 0 18 20" fill="none" xmlns="http://www.w3.org/2000/svg">
<path d="M8.03839 1.36949C8.31448 0.402061 9.68552 0.402061 9.96161 1.36949L11.0261 5.09954C11.1742 5.6185 11.7074 5.92632 12.2309 5.7951L15.9934 4.85197C16.9693 4.60736 17.6548 5.79471 16.955 6.51752L14.257 9.30444C13.8816 9.69218 13.8816 10.3078 14.257 10.6956L16.955 13.4825C17.6548 14.2053 16.9693 15.3926 15.9934 15.148L12.2309 14.2049C11.7074 14.0737 11.1742 14.3815 11.0261 14.9005L9.96161 18.6305C9.68552 19.5979 8.31448 19.5979 8.03839 18.6305L6.97389 14.9005C6.82578 14.3815 6.29262 14.0737 5.76914 14.2049L2.00656 15.148C1.0307 15.3926 0.345183 14.2053 1.04495 13.4825L3.74302 10.6956C4.1184 10.3078 4.1184 9.69218 3.74302 9.30444L1.04495 6.51752C0.345183 5.7947 1.0307 4.60736 2.00656 4.85197L5.76914 5.7951C6.29262 5.92632 6.82578 5.6185 6.97388 5.09954L8.03839 1.36949Z" fill="#E83B96"/>
</svg>
